<svg version="1" xmlns="http://www.w3.org/2000/svg" width="872" height="872" viewBox="0 0 654.000000 654.000000"><path d="M3 327v327h648V0H3v327zM549.3 18.9l78.9.6 2.5 2.9 2.5 2.9-.7 303.1c-.5 178.4-1.1 303.8-1.7 304.9-.5.9-2 2.4-3.3 3.3-2.3 1.5-26.1 1.5-301.2.4-321.3-1.3-302.6-.9-305.4-6.1-1.5-2.8-.1-607.4 1.4-610.4.5-1.1 1.5-2.4 2.1-2.8 1.1-.8 376.3 0 524.9 1.2z"/><path d="M28 22c-.4.3-1.1 136.9-1.6 303.5-.6 265.4-.5 303.2.8 304.2 1.8 1.6 596.3 4.2 597.7 2.7.5-.5 1.2-129.9 1.6-303.4.7-264.1.6-302.7-.7-303.8-1.1-.9-55.1-1.4-233.9-2.2-359.3-1.5-363-1.6-363.9-1zm54 27c24.4 4.7 44.3 14.7 61.2 30.8 12.3 11.8 20.1 23.9 25.8 40.4 4.9 14.1 4.7 34.3-.4 50.3-12 37.5-53.6 66.8-98.4 69.2l-11.3.6.5-3.4c1.3-8.4 2.3-182 1-185.3-.3-.9-.3-2.3 0-3.2.5-1.4 1.8-1.6 7.9-1.1 3.9.3 10.1 1.1 13.7 1.7zm271 6.1c43 6.6 78.1 37.8 87.1 77.4 2.2 9.6 1.8 28.4-.9 38.4-4.8 17.8-12.5 30.5-26.5 43.8-8.9 8.4-18.2 15-28.2 20.1-13.4 6.7-40.4 13-52 12-3.6-.3-4-.6-3.8-2.8.2-3.1 1.2-43.3 1.8-72.5 1.5-78.9 1.9-98.1 1.9-107 .1-5.5.4-10.3.9-10.6.9-.7 11.5-.1 19.7 1.2zm249 3.1c0 1.8-.5 8.6-1 15.1-.6 6.6-1.5 36-2.1 65.5-.6 29.6-1.4 66.1-1.8 81.2l-.6 27.5-9-.2c-39.7-1-76.9-25.1-91.8-59.8-19.4-44.9 2.6-95.9 51.8-120.3 14.7-7.2 33-12 46.8-12.1l7.7-.1v3.2zM99 278.5c5.2.8 13.1 2.7 17.4 4.1 7.5 2.5 8.1 2.5 10.7 1 1.5-.9 4.6-1.6 7-1.6 2.4 0 7-.6 10.2-1.2 5.7-1.2 6-1.2 7.5 1 .8 1.2 2 2.2 2.6 2.2 5.9 0 14.9 6.5 16.2 11.6.7 2.8-.1 6.2-2 8.8-1.8 2.3-3.3 1.4-4.1-2.4-.4-1.7-1.3-3-2.1-3s-2.3-.9-3.4-2-2.8-2-3.8-2c-1.1 0-3.3-.7-4.9-1.5-2.7-1.4-3.7-1.3-9.6.2-4.9 1.3-6.9 1.5-7.8.6-.8-.8-.5-1.7 1.1-3.3 1.2-1.2 2-2.3 1.8-2.6-.2-.2-4.4.1-9.2.6-9.9 1.2-15.6 4.3-15.6 8.6 0 4.2-1.8 7.4-4.2 7.4-4 0-10.3 2.4-13.8 5.2-1.9 1.5-3.2 2.9-3 3.1.3.2 4.5-.9 9.3-2.4 7.7-2.5 9.4-2.8 12.9-1.9 3 .9 4.3.8 5.4-.1.9-.7 4-1.6 7.1-2 3-.4 6.3-1.5 7.3-2.4 2.4-2.2 4-1.2 4 2.5 0 3.4 1.3 4 9 4 9.1 0 11.8.9 13.5 4.2 1.9 3.8 1.1 5.2-2.6 4.4-3.2-.6-3.4-.2-1.5 3.4 2.1 3.7 7.1 3.6 9.9-.1l2.1-2.9 3.4 6.7c7.5 14.9 8.2 20.1 8.2 60.2v32.3l-59.1-.4c-44.4-.3-59.2-.7-59.8-1.6-.6-1-.7-6.7-.2-10.5.1-.4 1.9-.7 4.2-.7 3.2 0 4.2-.4 4.6-1.9.2-1 1.6-2.4 2.9-3 1.3-.6 2.4-1.8 2.4-2.6 0-2.1-2.9-3.1-5.1-1.6-1.5.9-1.9.8-1.9-.1-.1-2-6.6-5.8-7.8-4.6-1.4 1.4-3.2.1-3.2-2.3 0-1.7.3-1.8 2-.7 1 .7 2.1 1 2.4.8.2-.3.8-3.3 1.2-6.8.6-5.4.4-6.2-.9-5.7-2.1.9-2.9-.9-1.7-4 .6-1.7 1-20.3 1-49.6V277h15.3c8.7 0 19.3.7 24.7 1.5zm310.5 1.1c3.5 1.4 5.4 3.4 8.6 8.9 1.9 3.2 2.3 5.5 2.4 11.7 0 4.3.3 7.8.6 7.8 2.4 0 12.4 13.1 16.9 21.9 6.4 12.9 7 17.4 7 57.2 0 31.6-.2 35.8-1.6 36.3-2.1.8-15.9.7-20.9-.2-3-.6-4.5-1.6-6.5-4.4-2.3-3.3-9-9.7-21.3-20.3-4.2-3.5-4.6-4.4-4.1-7.1.4-2.1-.1-4.1-1.5-6.5-4.7-7.6-1.1-8 6.2-.7C400 389 409.4 396 411 396c.3 0 .7-2.6.8-5.8.4-18.3.4-18.2 2.9-17.6 4.3 1.1 2.3-1.5-2.9-4-5.6-2.5-10.8-4-10.8-3.1 0 .3 1.8 3.2 4 6.3 2.7 3.8 3.9 6.4 3.4 7.5-1 2.7-2.7 2.1-9.5-3.4-3.5-2.8-8.3-6-10.6-7-2.6-1.1-4.3-2.5-4.3-3.5 0-.9-2-3.4-4.5-5.6-2.5-2.2-4.5-4.8-4.5-5.8 0-2.6-1.6-3.3-3.4-1.5-1 1-2.4 1.3-4.1.9-2.1-.5-2.5-.3-2.5 1.5 0 1.2-.2 2.1-.4 2.1s-1.1.3-1.9.6c-1.1.4-1.6-.5-2.1-3.2-.4-2-.3-4.1.2-4.6s5.1-1.1 10.2-1.3c9.9-.5 13.9.7 20.4 6.2 2 1.7 3.2 2.1 3.9 1.4 1.7-1.7 3.6-1.3 7.2 1.5 3.3 2.5 3.3 2.5 4 .4 1-3.2 3-1.8 3 2.1 0 2.6.6 3.7 2.7 4.8 2.5 1.5 2.9 1.4 4.5-.2 1.3-1.2 1.8-3.2 1.7-6.6 0-5.3-2.2-14.1-3.5-14.1-.4 0-1.2-1.5-1.8-3.3-1.3-3.7-7.5-10.7-9.6-10.7-.8 0-1.3.9-1.2 2.4.2 2.7-1.4 3.6-2.4 1.4-1.8-4-4.8-9.3-8.2-14.2-4.3-6.1-16.8-16.1-19.2-15.2-.8.3-1.7.1-2-.4-.8-1.3 2.1-6.6 4.1-7.4 2.6-1 5.4 2.1 4.8 5.3-.7 3.6 2.9 6 5.5 3.7 1-.9 2.5-1.6 3.4-1.6 1.8 0 4.7 3.7 4.7 6.1 0 1.7 1.9 2.9 4.8 2.9.9 0 4.7 2.9 8.3 6.3 5.4 5.1 6.7 6.9 7.2 10.2.5 3.4 1.1 4.1 3.1 4.3 2.1.1 2.7-.5 4.1-4.9 1.5-4.5 1.6-5.9.4-12.5-1-5.9-1.7-7.4-3.1-7.4-1.8 0-4-3.5-5.1-8.1-.7-2.9-4.7-7.9-6.3-7.9-.6 0-2.4-1-3.8-2.1-2.4-1.9-3.2-2-6.4-1-8.7 2.6-11.6.9-7.7-4.6.8-1.2 1.3-2.8 1-3.5-.4-.9.7-2 2.7-3 3.7-1.8 12-1.4 17.3.8zm123.9.3c2.3.9 2.6 1.4 1.7 2.5-.9 1.1-.9 1.6.1 2.3.7.4 1.9 1.6 2.6 2.5 1.1 1.4 1 1.8-.7 2.8-1.6.8-3.6.7-8.1-.5-5.7-1.5-6.2-1.5-11.3.6-8.8 3.6-9.5 4.1-10.7 7.3-2.6 6.8-3 7.7-4.6 8.3-2.1.8-5-3-5.9-7.4-1-5.6 3.8-13.3 10.6-16.9 6-3.1 20.1-3.9 26.3-1.5zm-263.7 3.6c3 1.3 3.4 1.7 2.3 3-1 1.3-1 1.9.4 3.4 4.2 4.6-.1 7.3-7.9 5.1-4-1.1-4.4-1-9.6 2.3-7.1 4.5-8.6 6.3-9.8 11.6-.5 2.4-1.6 5-2.4 5.8-1.3 1.3-1.7 1.1-3.8-1.8-4.5-6.3-2.5-15.6 5-22.9 4.2-4.2 8-6 12.4-6 1.8 0 3.9-.5 4.7-1 2.1-1.4 4.5-1.2 8.7.5zm326.1 32.2c.2 32.8.2 33.1-1.8 32.6-1.1-.3-2-.1-2 .5 0 1.4-6.9 2.1-7.9.8-.4-.6-.8-4-1-7.5-.1-3.9-1-7.7-2.2-10-1.9-3.6-8-8.1-11.1-8.1-1.1 0-1.8-.8-1.8-1.8 0-2.4-1.9-4.2-4.4-4.2-4.3.1-13 5.5-15.9 9.8-1.6 2.3-3.5 4.2-4.3 4.2-2.2 0-5.4-3.8-5.4-6.5 0-3.4-2.1-3.2-6.3.5-1.9 1.6-4.5 3-5.7 3-1.9 0-2.1-.4-1.5-3 .4-1.7.2-3-.3-3-1.7 0-10.1 8-10.8 10.3-.4 1.2-1.1 2.5-1.7 2.8-.5.4-1 3.1-1 6-.1 6.4 2.2 11.3 6.2 13.3 2.5 1.4 3.1 1.3 6.2-.6 3.3-2.1 3.4-2.1 1.2-3.1-2.3-1-3-3.1-1.5-4.1.5-.3 1.9.4 3.2 1.6 1.8 1.7 2.6 1.9 3.9 1 .9-.7 3.1-2 4.9-2.9 3-1.6 3.3-1.6 4.6.2 1.3 1.8 1.4 1.8 3.7-.4 3-2.9 10.2-6.1 13.7-6.1 5.1 0 7.2 0 9.2-.1 12.6-.4 15 .6 15 6.5 0 3.3-1.5 3.3-4.5.1-1.8-2-2.9-2.4-4.9-1.9-1.9.4-3.3.1-4.6-1.1-2.2-2-4.3-1.1-3.5 1.5.4 1.3-.5 2.7-3.4 5.1-2.6 2-3.9 3.9-3.8 5.2.2 1.5-.8 2.2-4.1 3.2-2.5.8-5.9 3-8.4 5.5-5.6 5.6-7 6.2-9.6 4.4-2.8-2-2.7-3.9.3-9.3 1.4-2.4 2.3-4.6 2.1-4.9-.3-.2-1.7.5-3.3 1.6-1.5 1-3.8 2.3-5 2.6-4.6 1.5-2 10.1 4.6 15.2.8.6 2.2 3.1 3.1 5.5 1 2.4 2.5 4.6 3.5 4.7 1.4.3 8.2-6 15.6-14.6 1.7-2 2.2-2.2 3.6-1.1 1.1 1 1.4 2.4.9 5.6-.5 3.8-.2 4.6 1.9 6.5 3.5 3.1 3.1 3.8-2 3.8-4 0-4.5.3-6 3.5-2.3 4.7-10.5 9.9-14.5 9.1-2.2-.4-3-.2-3 .9 0 3.1 9.9 3.1 14.4 0 1.2-.9 3.4-1.2 6-.9 3.8.5 4.2.3 5.9-2.4 2.1-3.8 9.3-9.6 10.7-8.7.5.3 1 2.2 1 4.1 0 3.6.8 4.2 2.9 2.1 1.1-1 1.3-.5.8 2.7-.4 2.7-1.7 4.8-4.2 7-2.6 2.3-3.5 3.9-3.4 6.1.1 2.9.1 2.9.8.5.4-1.4 1.4-2.4 2.1-2.2.7.2 3.2-1.4 5.4-3.5 5.5-5.2 8.6-6.7 12.5-5.8 3.9.8 6.1 3.9 6.1 8.4v3.5l-2.8-3.4-2.9-3.4-5.7 5.8c-6.2 6.2-6.7 8.3-1.9 7.8 1.7-.2 4.8.4 6.8 1.2 2.8 1.2 4.1 1.3 5.1.5.9-.7 1.4-.7 1.4-.1 0 3-3.4 3.4-42.2 4.2-21.6.5-47.8.9-58.1 1h-18.9l.5-36.8c.5-40.5.7-42.2 7.2-55.4 4-8 8.3-14.4 12-17.8l2.8-2.5-.7 3.5c-.5 2.9 0 4.4 2.6 8.5 2.7 4 3.9 5 6.5 5.2 2.9.2 3.4-.2 6.7-6.2 5.4-9.8 6.2-10.4 13.9-9.8 7.2.6 9.1-.5 6.1-3.8-1.7-1.8-1.7-2 .2-3.4 3.1-2.4 8.4-1.6 8.4 1.2 0 .8.7 2.2 1.6 3 1.3 1.3 2 1.4 3.5.5 1-.7 3.2-1.2 4.8-1.2 1.6 0 4.5-.7 6.5-1.5 3.9-1.7 9.4-1.2 13.1 1 2.4 1.5 10.5 2.8 10.5 1.8 0-1.3-6.6-5.3-10.6-6.5-2.2-.6-5.5-1.2-7.4-1.2-3.5-.1-3.5-.1-4-5.5-.5-4.8-1.1-5.8-4.9-9.2l-4.2-3.8 4.3-.4c2.4-.2 12-.3 21.3-.3l17 .1.3 33.2zm-223.3-31.5c.4.4-.4 2.1-1.9 3.8-1.9 2.3-2.6 4.3-2.6 7.3 0 7.4-.7 8.4-5.8 9-3.7.4-5.3 1.2-8 4.1-1.8 2-3 4-2.8 4.5.6 1 6.6-.8 8.7-2.6 2.9-2.2 7.3-2.4 11.3-.4 2.1 1.1 4.3 1.8 4.7 1.5 1.1-.6 9.3 5.5 11.9 8.9 2.8 3.5 4.5 12.2 3.1 15.3-1.7 3.7-4.6 3-7.3-1.8-2.2-4.1-7.8-8.8-12.7-10.9-2.8-1.1-4.1.1-4.1 3.8 0 1.5-1.1 2.7-3.4 3.8-1.8.9-3.9 2.8-4.7 4.2-1.5 2.9-1.8 12.3-.6 19.5l.8 4.7-3.1-.1c-2-.1-3.5-.8-4.2-2.1-1.6-3-2.8-.3-2.8 6.3 0 5.7 2.7 11.9 5.2 12.1 2.2.2 3.2.5 5 1.3 3.5 1.6 4.2-.2.9-2-5.2-2.9-8.6-6.3-7.3-7.6.7-.7 2.1-.4 4.4 1 1.8 1.2 5.1 2.9 7.3 4 3.8 1.8 12.5 11.5 12.5 14 0 1.8-5 2.6-8.2 1.4-2.6-.9-2.8-.8-2.8 1.4 0 1.8-1.1 2.9-5 4.9-6.1 3.1-7 4.8-4 8 2.3 2.4 2.3 2.5.5 4.5-1 1.1-1.3 2-.7 2 .6 0 4.1 4 7.7 8.9 4.9 6.6 7.6 9.3 10.7 10.7 5.9 2.6 12.8 7.2 12.8 8.4 0 1.4-5.5 1.2-9.3-.4l-3.2-1.3v3.7c0 4.2-1.8 7-4.5 7-.9 0-6.5-2.3-12.5-5-5.9-2.8-11.2-5-11.8-4.8-3.9.6-15.2-5.1-16.2-8.3-.8-2.3-7.8-6.6-13.7-8.4-4.4-1.3-5.3-1.3-7.8 0-4.1 2.1-4.9 1.9-10.4-2.9l-4.9-4.3 2.9-8.9c1.5-4.9 2.9-11.4 3-14.4.1-3 .3-5.6.3-5.8.1-.1 1 .2 2.1.8 1.3.7 2.2 2.6 2.6 5.2.7 4 2.1 6.1 6 8.5 1.6 1 1.7 1.3.4 2.2-.8.6-2.6 1.1-3.9 1.1-2.2 0-2.3.3-1.9 5.5.3 3 .7 5.8 1.1 6.1.3.4 2.6.9 5 1.1l4.5.5.7-5c.4-2.8 1.3-5.9 2-6.9 1.3-1.7 1.4-1.7 3.4.1 1.1 1 2.3 2.7 2.6 3.7.4 1.1 1.4 1.8 2.7 1.6 2.8-.3 4.3 4.9 2.9 10-.6 2.3-.7 4.2-.1 5.2s1 1.1 1 .3c0-.6.6-1.2 1.4-1.2.8 0 1.7-1.5 2-3.6.4-1.9 1.6-4.4 2.8-5.6 1.1-1.1 2.3-3.2 2.7-4.6.4-1.4 1.1-2.7 1.7-2.9.5-.1 2.9 1.5 5.4 3.7 4 3.5 4.3 4 2.5 4.5-1.8.5-2 1.5-2 7.7v7.1l6.3 4.5c5.5 3.8 6.8 4.3 9.8 3.8 3.7-.7 4-1.5 2.3-4.9-.9-1.6-.9-2.2 0-2.5.6-.2-.6-2-2.7-4.2-2.2-2-4.2-5-4.6-6.5-.4-1.5-2.3-5.9-4.2-9.7-4.4-9.1-4.4-12.1.1-16.4 2.2-2.1 3.3-3.8 2.9-4.8-.3-.9-.1-1.6.5-1.6s1.1-.5 1.1-1c0-1.9-2.1-1-6.1 2.7-3.4 3.2-4.1 4.6-4.6 9-.3 2.9-.9 5.3-1.3 5.3s-2-1.6-3.4-3.5c-2.7-3.4-2.8-3.5-8.1-2.9-4.7.6-5.6.4-6.1-1.1-.5-1.2 0-2.3 1.6-3.5 1.9-1.5 2.1-2 1-4l-1.2-2.2-1.9 3.1c-1.5 2.5-2.5 3.1-5.2 3.1-5.8 0-7.2-2.3-6.8-11.2.1-1.5.8-3.3 1.7-4 .8-.7 3-2.8 4.9-4.6 3.9-3.6 6.5-4.1 6.5-1.2 0 1.7-5.3 9-7.2 9.8-.5.2-.8 1.3-.7 2.5v2.2l1.1-2.3c.6-1.2 1.7-2.2 2.4-2.2s2-.7 2.8-1.6c.9-.8 2.1-1.2 2.7-.8.6.3 1.5 0 2-.7 1.7-2.7.9-7.6-2-13.1l-3-5.6.5-36.2c.2-19.9.7-36.6 1-37.2.7-1.1 41.8-.7 42.9.4zm184.9 13.4c2.8 3.1 2.4 5.2-1.1 6-3.4.9-7.1-1.1-7.9-4.2-1.2-4.9 4.9-6.1 9-1.8zm-434.5 2.3c1.2.8 1.2 1.3-.2 3.5-2.3 3.4-6.3 4.4-8.5 2.2-1.6-1.6-1.5-1.9 1.1-4.2 2.9-2.5 5.2-3 7.6-1.5zm165.6.9c.6.4 1.6 2 2.4 3.5 1.3 2.4 1.3 2.9 0 4.2-1.3 1.3-1.8 1.2-4.7-.5-4.3-2.7-4.5-8-.3-8 .9 0 2.1.4 2.6.8zm14.9 11.7c1.5.8 3.3 1.5 4 1.5.6 0 2.8.5 4.9 1.1 4.4 1.2 4.7 3 1.7 8.9-1.9 3.8-2.9 4.4-5.7 4.1-2.4-.3-2.3 1.9.2 2.5 5.1 1.3 8.1 7 10.5 19.6.9 4.7 1.5 5.7 3.3 6 1.2.2 2.3 1.1 2.5 2.1.3 1.5-.2 1.8-3.4 1.5-3.4-.3-3.8-.6-5-4.8-.8-2.5-1.4-5.7-1.4-7.2 0-5.7-5.7-13.6-11.3-15.7-1.5-.6-3.2-2.2-3.7-3.6-1.3-3.4-4.1-3.2-9.7.6-3.1 2.2-5.2 4.6-6.6 7.8-1.1 2.5-2.4 4.9-3 5.3-2.9 1.9-7.2-4.3-6.1-8.9.6-2.4-.4-1.8-6.4 4.3-7.5 7.4-9.2 10.4-9.2 16 0 5.5 4 11.9 5.2 8.3.2-.6 1.5-.1 3.1 1.1l2.7 2.2 2.9-3.1c3.4-3.6 3.4-3.6 5.6-1.4 1.6 1.6 1.8 1.5 2.8-.3 3.1-5.5 11.2-10.1 14.8-8.3 1.1.5 2.1.4 2.7-.4.7-.8 3.1-1.1 7.1-.9 5.6.3 6.3.6 7.6 3.2 2.9 5.5 1.4 7.9-2.5 4-1.2-1.2-3.1-1.9-4.8-1.8-1.5.1-3.7-.4-4.8-1-2-1.1-2.1-.9-2 2.6 0 2.6-.6 4.5-2.1 6.1-1.5 1.7-2 3.2-1.7 5 .5 2.3.1 2.9-2.7 4.1-3.4 1.6-3.7 2-6.6 8.5-2.1 4.7-4 5.3-7.2 2.4-2.1-2-2.3-2.8-1.7-8.1.3-3.2.2-5.8-.2-5.8-.4.1-2.2 1.4-4.1 3l-3.4 2.9 1.6 4.3 1.7 4.3-3.6-3.8c-2-2-5.8-4.9-8.5-6.4-4-2.1-5.4-3.6-7.3-7.9-1.4-2.9-2.7-7.9-3.1-11.1-.3-3.2-1.3-7.5-2.2-9.6-1.3-3.1-1.4-4-.3-5 1-.9 1.3-.9 1.7 0 .6 1.6 2.3 1.7 2.3.2 0-1.9 5.2-14.3 7.2-17.2 4.3-6.1 6.3-1.7 2.7 6.2-1.5 3.5-1.7 4.6-.7 5.3 2 1.2 2.5 1 3.8-2.2.7-1.7 1.6-3 2.1-3s1.7-.8 2.7-1.8c3.2-3.2 10.3-7.3 12-7 .9.1 3.6-1.6 5.9-3.9 6.9-6.8 10-7.7 15.7-4.8zM575 355c0 .5-.7 1-1.6 1-.8 0-1.2-.5-.9-1 .3-.6 1-1 1.6-1 .5 0 .9.4.9 1zm21 3.5c0 .9-2.2 3-5 4.7-5.5 3.4-6.3 4.8-2.5 4.8 3.6 0 3.2 3-.7 6.9-3.4 3.3-5.1 3.7-9.1 2.2-3.8-1.5-4.4-6-1.7-13.2 1.7-4.5 2.7-5.9 4.2-5.9 1.1 0 2.2.9 2.5 2 .6 2.4 1.6 2.5 3.4.4 2.6-3.2 8.9-4.5 8.9-1.9zm8 3.4c0 2-6.6 7.1-9.2 7.1-4.5 0-2.3-5.1 3.2-7.3 4.8-2 6-2 6 .2zM370.5 364c.3.5.2 1-.4 1-.5 0-1.3-.5-1.6-1-.3-.6-.2-1 .4-1 .5 0 1.3.4 1.6 1zm-58.5 2.4c0 1.1-1.9 1.5-2.5.6-.3-.5.1-1 .9-1 .9 0 1.6.2 1.6.4zM58.3 382.5c.4.8.2 1.7-.3 2-.6.4-1-.3-1-1.4 0-2.5.6-2.7 1.3-.6zm539.9 2.1c4 2.1 7.2 14.4 3.7 14.4-.5 0-1.8-2.2-3-4.9-1.7-4.1-2.6-5.1-5.2-5.6-7.3-1.4-10.2-3.6-8-5.9 1-.9 9.3.4 12.5 2zM280.8 390c2.2 1.7 4.4 4 4.7 5 .4 1.1 1.2 2 2 2 .7 0 1.2.8 1.1 1.7 0 1.1.6 1.7 1.7 1.7 2.1-.2 2.2 1.6 0 6.1-1.6 3.4-1.6 3.6.3 6.3 1.2 1.5 3.7 3.6 5.7 4.7s3.7 2.3 3.7 2.7c0 1.6-2.9.7-6.8-2.2-4.1-2.9-5.2-5.3-7.6-16.3-.4-1.5-2.9-5.2-5.6-8.2-2.8-3-5-5.7-5-6 0-1.1 1.9-.3 5.8 2.5zm92.7 11.7c1.4 2.5 4.5 5.2 10 8.6 7.7 4.8 14.5 8.2 14.5 7.3 0-.2-3.2-2.8-7.1-5.6-6.2-4.5-7-5.5-6.5-7.6.4-1.3.2-3.4-.5-4.5-3.4-6.5 5.2-1.4 20 11.7.2.2-.2 1-.8 1.8-.7.8-1 2.4-.6 3.6.4 1.3.1 2.2-.9 2.6-2.3.9-2 1.9 1.6 6 2.9 3.3 3.5 3.6 7.3 3.1 5.2-.8 7.5.5 5.7 3-.7 1-1.5 2.6-1.8 3.5-.7 2-2 2.3-2.9.8-.4-.6-2.3-.7-4.6-.4-3.8.6-3.9.5-5.5-3.1-1.9-4.7-11.6-14.6-17-17.3-3.7-1.9-4.3-1.9-6.3-.6-1.9 1.4-2.1 1.3-2.1 0 0-.9-1-2.7-2.2-4.2-1.3-1.4-2.3-3.3-2.4-4.3-.1-.9-.9-2.9-1.8-4.4-1.8-2.7-1.4-5 .7-4.1.7.2 2.1 2.1 3.2 4.1zm41 20.3c.3.5.1 1-.4 1-.6 0-1.1-.5-1.1-1 0-.6.2-1 .4-1 .3 0 .8.4 1.1 1zM73.8 476.7L74 500H56v-47.1l8.8.3 8.7.3.3 23.2zm39.1-11.2c5.7 6.9 10.8 12.5 11.3 12.5.4 0 .8-5.6.8-12.5V453h16v47H124.3l-10.4-12.5-10.4-12.4-.3 12.4-.3 12.5H86v-47h16.5l10.4 12.5zM192 455c9.8 3.6 13.9 10.1 14 22.1 0 9.8-2.6 15.1-9.5 19.4l-4.8 3-19.4.3-19.3.4v-47.4l17.8.4c10.7.3 19.1 1 21.2 1.8zm43.8 21.7l.2 23.3h-18v-47.1l8.8.3 8.7.3.3 23.2zm31.3-7.2c3.5 9.1 6.6 16.5 6.9 16.5.3 0 3.3-7.3 6.6-16.3l6.2-16.2 8.6-.3c6.5-.2 8.6 0 8.6 1 0 .7-4.6 11.3-10.2 23.6l-10.2 22.3-9.9-.3-10-.3-10.4-22.3c-5.6-12.3-10.3-22.8-10.3-23.3s4-.9 8.9-.9h8.8l6.4 16.5zm62.7 7.2l.2 23.3h-18v-47.1l8.8.3 8.7.3.3 23.2zm52.6-21.3c3.8 1.9 7.6 6.7 7.6 9.7 0 1.3-1.4 1.7-8.1 1.8-7.6.2-8.1.1-10.1-2.4-1.8-2.3-2.6-2.6-7.2-2.3-4 .2-5.2.7-5.4 2.2-.6 2.8.6 3.4 11.1 5.6 16.1 3.3 21.7 7.4 21.7 15.8 0 4.1-.5 5-4.4 8.8-5.1 4.8-10.4 6.4-21.6 6.4-10.9 0-16.6-1.6-21-6-3.4-3.4-5.8-8.5-4.6-9.7.2-.3 4-.7 8.4-1 7.9-.6 7.9-.6 8.6 2 1.2 5 10.6 7.5 15.4 4.1 5.1-3.5 1.9-6.6-9.8-9.3-14.6-3.3-19.7-6.8-20.7-13.8-.4-3.2 0-4.5 2.3-7.2 4.9-5.9 9.2-7.2 22.4-6.9 8.9.2 12.4.7 15.4 2.2zm37.4 21.3l.2 23.3h-18v-47.1l8.8.3 8.7.3.3 23.2zm57.1-21.2c1.9 1.1 4.3 3.2 5.4 4.7 2.9 3.9 1.5 9.5-3 12.3-3.9 2.4-4 3.1-.7 3.9 4.7 1.2 7.4 5 7.4 10.3 0 5.2-1.6 7.8-6.5 10.9-2.6 1.7-5.5 1.9-24.7 2.2l-21.8.4v-47.4l20.3.4c18 .3 20.6.5 23.6 2.3zM514 471v18h28v11h-46v-47h18v18zm84-12.5v5.5h-30v6h28.1l-.3 5.2-.3 5.3-13.7.3-13.8.3v8.9h31v10h-49v-47h48v5.5zm-374 57l-2.4 2.5 2.2 4.3c1.2 2.3 2.6 4.9 3.1 5.7.6.8 2 4.2 3.3 7.5 2.7 6.9 12.4 25.1 13.9 26.1.6.3 1.9 2.5 3 4.8 1 2.2 3.1 6.2 4.6 8.7 1.5 2.5 3.9 6.4 5.2 8.7 2.5 4.3 5.1 5.6 12.5 6.4 1.6.2 3.1.8 3.3 1.5.6 1.8-5.5 2.6-16.4 2.1-10.9-.5-10 .1-17.6-11.8l-4.2-6.5-4.5.3c-2.5.1-6.9.5-9.8.8l-5.2.5.2 4.4c0 2.4-.5 5.1-1.2 6-.7.9-6.9 6.1-13.8 11.5-13 10.5-18.9 13.4-11.5 5.7l4.1-4.2.6-21.5c.3-13.2 1.1-24 2.1-28 .8-3.6 1.4-8.9 1.5-11.8 0-6 .2-6.3 11.9-15.7 7.5-6 16.2-11.6 17-10.9.3.2-.6 1.5-1.9 2.9zm54-1.8c0 .4-1.9 2.6-4.2 5l-4.2 4.3 2.1 2.2c1.1 1.3 3.9 5.9 6.2 10.3 2.3 4.4 8.1 13.3 12.9 19.8l8.7 11.7 1.2-3.5c1.3-3.9 1.9-20.1.8-25.5-.6-3.3-.2-4 5.3-10 3.3-3.6 7.2-7.2 8.8-8 1.6-.8 4.6-2.8 6.6-4.4 4.4-3.4 5.9-2.8 3.5 1.3-2 3.4-1.6 4.9 2.8 10.7 1.7 2.2 3.7 5.6 4.4 7.5.7 1.9 1.7 4.5 2.3 5.9.5 1.4.9 2.7.8 2.9-.1.2.2.7.7 1 .4.3 2.1 3.2 3.8 6.3 2.9 5.8 10.9 15.1 11.9 14 .3-.3.6-1.9.6-3.6.1-5.9 3.7-25.1 5.3-28.1.9-1.7 2.5-3.9 3.4-5 2.8-3.1 13.3-10.8 13.9-10.2.8.7-1.8 5.5-5.5 10.1-2.5 3.1-3.1 4.8-3.1 8.7 0 2.6-1.3 10.3-2.9 17.1-1.6 6.8-3.2 14-3.6 16.1-.5 3.3-2.3 5.5-10.8 13.7-11.5 11-20.7 19-21.9 19-1.6 0-.7-1.7 3.7-6.5 2.5-2.8 4.5-5.4 4.5-5.9s-3.3-4.5-7.3-9c-4-4.4-9.1-10.9-11.2-14.3-2.1-3.5-4.3-6.7-5-7.3-1.4-1.2-1.9.7-3 11-.4 3.6-1.6 7.9-2.6 9.7-2.6 4.2-24.9 21.9-24.9 19.7 0-.4.9-1.7 2-2.9l2.1-2.2-5.4-8c-6.8-10.1-10.3-14.7-14.6-19.1-1.8-2-4.5-6-5.8-9.1-1.3-3.1-2.8-6.3-3.4-7.1-.5-.8-1.8-3.3-2.8-5.5-1-2.2-2.8-4.6-4-5.3-4.5-2.7-2.2-5.5 16.3-20.3 9.2-7.4 11.6-8.9 11.6-7.2zm134.3 3.5l-3.1 3.3 3.2 6c1.8 3.3 4.5 8.2 6.1 11 2.7 4.8 4.3 8.1 10.5 21 1.6 3.3 5.3 10.9 8.3 17l5.4 11 4.8.8c6 1 7.3.5 6.9-2.5-.2-1.3-.6-4.8-.9-7.8-.4-3-1.3-11-2.1-17.7-.8-6.6-1.4-12.5-1.3-13 .2-.4-.3-2.6-.9-4.8-1.2-4-1.2-4 3-7.9 6-5.5 19.4-15.3 21.9-16.1 3.3-1.1 3.3.1 0 3.1-2.1 1.8-2.9 3.3-2.5 4.3.9 2.2 3.6 25.9 3.5 30.1-.1 1.9.6 7 1.5 11.4 1.6 7.4 1.6 8 0 11-1.8 3.2-29.2 25.9-32.1 26.4-2.7.6-.3-2.9 5.5-8.1 2.7-2.5 5-4.8 5-5.1 0-.3-3.9-.4-8.7-.2-13.6.5-13.7.4-18.5-8.1-9.3-16.2-8.6-15.3-12.6-15.3-2 0-5.4.3-7.4.6-3.2.6-3.8 1-3.8 3.2 0 1.7-1.9 4.4-6.2 8.7-9.5 9.3-22.9 19.8-24.1 18.6-.6-.6 1-2.8 4.5-6.3 6.3-6.1 6.6-7 6.8-23.3 0-6.1.5-15.3 1-20.5.8-8.2.7-9.7-.8-11.3-1-1.2-1.2-2.1-.6-2.5.6-.4 4.3-3.4 8.4-6.7 6.8-5.5 19.2-13.4 21.4-13.5.6 0-.4 1.5-2.1 3.2zm-226.3-.3c0 .5-1.4 2.1-3.1 3.4l-3.2 2.4-.3 12.4c-.1 6.8-.8 17.3-1.5 23.2-.8 7.2-.8 12.4-.2 15.5.5 2.7.7 5.4.5 6.1-.3 1-12.9 11.8-28.4 24.1-4.5 3.6-10.8 7.4-10.8 6.5 0-.4 1.8-2.5 4.1-4.7 3.9-3.9 4.1-4.2 3.4-8.7-1-5.8-.7-12.8 1.1-26.4l.7-5.7h-5c-2.8 0-7.1.3-9.6.6-4.3.6-4.6.8-4.5 3.6.1 1.6-.8 4.1-1.9 5.6-4.8 6.5-37.3 32.4-37.3 29.7 0-.3 1.7-2.4 3.8-4.6 3.4-3.8 3.7-4.7 3.8-10.3.1-3.4.2-14 .4-23.6.1-9.6.6-18.2 1.1-19.1 2-4 33.9-28.9 36.8-28.9 1.1.1.4 1.2-2.2 3.4l-3.8 3.4.3 13.3.3 13.4 8.5-.4c4.7-.2 8.8-.5 9.2-.7.4-.3.3-1.5-.2-2.8-.7-1.8-.4-2.9 1.2-4.6 3.3-3.5 25.1-20.7 30.5-23.9 5.2-3.2 6.3-3.6 6.3-2.2zm330.6 1.5c2.7 2 1.5 2.7-6.5 3.6-6.5.7-12.2 3-12.1 4.8.1.4.7 1.8 1.5 3.2 2.1 3.6 1.9 7.7-.4 9-1.1.5-3.9 1-6.4 1-3.6 0-4.6-.4-5.7-2.4-3.5-6.7 3.2-17.4 12.1-19.4 6.7-1.5 15.2-1.4 17.5.2zm29.1 2.4l-3.7 3.8-.1 26.1v26.2l-5.7 4.9c-6.8 5.8-27 21.2-28.9 21.9-4 1.6 1.8-5.6 9.4-11.4l3.1-2.4-.4-24.7c-.3-20-.1-25 1.1-26.8.7-1.2 5.6-5.5 10.7-9.6 14.4-11.4 21.9-15.6 14.5-8z"/><path d="M106.3 319.7c-.7.2-1.3 1.1-1.3 1.9 0 .7-2.4 2.5-5.3 3.9-6.4 3-9.3 7.4-10.1 15.5-.3 3-.5 5.6-.6 5.7 0 .1-1.5.3-3.2.5-2 .2-3.7-.3-4.4-1.2-1-1.2-1.4-1.2-2.9 0-2.5 2.1-4.6 7.6-4 10.3.6 2.4 4.5 5.6 4.5 3.6 0-.6.9-.8 2.3-.4 5.9 1.7 6.2 1.7 5.1.6-.6-.7-2.6-2-4.4-2.9-1.9-.9-3.6-2.3-3.8-3-.5-1.7 4.3-1.6 7.6.2 1.5.8 3.9 1.9 5.4 2.4 1.6.7 3.6 2.8 4.8 5.1 1.9 3.8 1.9 4.1.3 5-3.9 2-8.6 2-11.4 0-3.3-2.3-3.9-2.4-3.9-.4 0 .8-.5 1.5-1.1 1.5-.6 0-.9-.9-.6-1.9.2-1 .1-2.5-.4-3.2-.6-1.1-1.4-.8-3.6 1.3-2.6 2.5-3 2.6-3.9 1.1-.7-1.2-1.3-1.3-1.8-.5-.4.7.5 1.7 2.4 2.7 3.8 2 3.8 3.8 0 8.2-3.4 3.8-3.6 5.1-1.4 7.9 1.1 1.3 1.7 1.5 2 .6.9-2 2.4-1.3 2.1 1-.2 1.2-1.2 2.5-2.3 2.9-1 .4-1.4.8-.8.8.6.1 3.5 2.3 6.4 5.1 4.9 4.6 5.6 5 10.2 5 4.1 0 5.1.3 5.5 2 .7 2.7 2.6 2.5 6-.4 3.1-2.7 2.7-4.4-.6-2.7-1.7 1-2.6.6-6.1-2.5-2.3-2.1-4.6-3.4-5.4-3.1-2 .8-6.6-3-6.6-5.4 0-4.2 4.8-3.5 11.7 1.8 3.9 3 7.3 3.7 7.3 1.6 0-.8-.4-1.1-1-.8-.5.3-1-.1-1-.9 0-.9-.5-1.6-1.1-1.6-1.6 0-3.8-3.1-3.9-5.3 0-1.1.6-1.7 1.7-1.5 1.1.2 1.9-.6 2.3-2.2.9-3.9 3.5-3.5 8.7 1.5 4.3 4.2 5.2 4.6 8.4 4.2 4.3-.6 6.9.7 6.9 3.3 0 1.3 1 2.2 3.3 2.8 3.6 1 6 .5 5-1.1-.4-.7 0-.8 1.1-.4 1.2.5 1.6.3 1.4-.5-.3-.7-1.9-1.7-3.7-2.2-6.1-1.8-19.1-20-17-23.9 1.5-2.6 3.7-2 5.9 1.5 2.4 4 9.7 9.8 12.2 9.8 1.2 0 2.4-1.2 3.3-3.3.7-1.7 3.1-4.9 5.3-6.9 3.3-3.1 6.1-8.3 5-9.3-.9-.7-9.3-4.3-9.6-4-.2.2.6 2.2 1.8 4.6l2.2 4.3-2.2 1.8c-1.2 1-2.6 1.8-3.1 1.8-.4 0-3-2-5.8-4.4-2.9-2.6-6.3-4.6-8.5-5-2.6-.5-3.6-1.2-3.6-2.6 0-1-1.3-2.8-3-4-1.6-1.2-3-3-3-4.1 0-2-2.4-2.6-3.5-.9-.3.5-1.9 1-3.6 1-1.6 0-3.8.9-4.9 2-1.1 1.1-2.4 2-3 2-1.2 0-1.3-4-.2-5.5 1-1.5 14.4-3.6 15.7-2.5.7.6 1.6.5 2.2-.1 1.6-1.6 12 1 15.5 3.9 2.2 1.9 3.2 2.2 4.1 1.3 1.6-1.6 4.1-1.4 7.5.6 2.9 1.7 3.1 1.7 5 0 2.4-2.2 3.2-2.2 3.2.2 0 1-.8 2.2-1.7 2.6-1.5.6-1.4.9 1.1 2.2 2.7 1.4 3.2 1.4 6.2-.2 2.3-1.2 3.7-3 4.7-6 1.5-4.2 1.2-9.5-.4-9.5-.5 0-.9-.8-.9-1.7 0-.9-1.2-3-2.7-4.5-2.8-3-7.3-3.8-7.3-1.4 0 2.9-2.2 2.8-6.5-.3-5.2-3.7-6.5-3.9-6.5-.8 0 3.1-3.3 6.1-5.8 5.3-1-.4-2.4-1.8-3-3.2-1.9-4.1-12.7-8.4-16.9-6.7zM99.5 350c.3.5.2 1-.4 1-.5 0-1.3-.5-1.6-1-.3-.6-.2-1 .4-1 .5 0 1.3.4 1.6 1zm9.5 23c0 .5-.4 1-1 1-.5 0-1-.5-1-1 0-.6.5-1 1-1 .6 0 1 .4 1 1z"/><path d="M88 360.9c0 .5.7 1.4 1.5 2.1 1.6 1.4 1.8 1 .9-1.4-.6-1.7-2.4-2.2-2.4-.7zM365 377.8c0 .4.9 1.3 2.1 2 1.9 1.2 1.9 1.1.9-.8-1-1.9-3-2.8-3-1.2zM362 383c0 .5.5 1 1.1 1 .5 0 .7-.5.4-1-.3-.6-.8-1-1.1-1-.2 0-.4.4-.4 1zM266 368.1c0 .5.5.7 1 .4.6-.3 1-.8 1-1.1 0-.2-.4-.4-1-.4-.5 0-1 .5-1 1.1zM259.5 370c.3.5 1.1 1 1.6 1 .6 0 .7-.5.4-1-.3-.6-1.1-1-1.6-1-.6 0-.7.4-.4 1zM582.1 365.4c-.6 1.6-1.1 3.8-.9 4.9.3 1.9.3 1.9 1.9.1 1-1.3 1.3-2.8.9-4.9l-.7-3-1.2 2.9zM171 476.9V490h3.8c2 0 5.4-.5 7.4-1 3.1-.9 3.9-1.8 5.3-5.5 2.1-5.5 1.3-12.4-1.8-16.1-1.8-2.1-3.4-2.7-8.5-3.1l-6.2-.6v13.2zM451.2 467.7c.3 3.6.5 3.8 4 4.1 5.3.4 10.2-1.1 10.7-3.3.5-2.9-2.7-4.5-9.2-4.5h-5.8l.3 3.7zM451 485.6v4.6l7.6-.4c6-.3 7.9-.7 9-2.3 1.8-2.4 1.8-3-.2-4.9-1.1-1.2-3.6-1.6-9-1.6H451v4.6zM216.7 542.6c-.4.4-.7 5.2-.7 10.6v9.8h5c2.8 0 5-.3 5-.7 0-.4-1.6-4-3.6-8s-3.9-8.5-4.3-9.9c-.3-1.4-1-2.2-1.4-1.8zM404 548.5v8.5h4.5c2.5 0 4.5-.3 4.6-.8 0-1.3-7.6-16.1-8.3-16.2-.5 0-.8 3.8-.8 8.5z"/></svg>